<?xml version="1.0" encoding="UTF-8"?>
<!DOCTYPE svg PUBLIC "-//W3C//DTD SVG 1.1//EN"
    "http://www.w3.org/Graphics/SVG/1.1/DTD/svg11.dtd"><svg height="400.0000" width="900.0000" xmlns:xlink="http://www.w3.org/1999/xlink" stroke-opacity="1" version="1.1" stroke="rgb(0,0,0)" xmlns="http://www.w3.org/2000/svg" font-size="1" viewBox="0.0 0.0 900.0 400.0"><defs></defs><g fill-opacity="1.0" stroke-miterlimit="10.0" stroke-opacity="1.0" stroke-linecap="butt" stroke-linejoin="miter" fill="rgb(30,30,30)" stroke-width="0.0" stroke="rgb(0,0,0)"><path d="M 730.1080,400.0000 l -0.0000,-400.0000 h -560.2160 l -0.0000,400.0000 Z"/></g><g fill-opacity="0.0" stroke-miterlimit="10.0" stroke-opacity="1.0" stroke-linecap="butt" stroke-linejoin="miter" fill="rgb(0,0,0)" stroke-width="2.0" stroke="rgb(113,9,170)"><path d="M 169.8920,398.2442 l 80.0309,-0.6581 l 80.0309,-2.3855 l 80.0309,-5.1660 l 80.0309,-10.7500 l 80.0309,-26.0990 l 80.0309,-42.1218 l 80.0309,-93.1797 "/></g><g fill-opacity="0.0" stroke-miterlimit="10.0" stroke-opacity="1.0" stroke-linecap="butt" stroke-linejoin="miter" fill="rgb(0,0,0)" stroke-width="2.0" stroke="rgb(11,97,164)"><path d="M 169.8920,398.7856 l 80.0309,-1.3491 l 80.0309,-2.8439 l 80.0309,-23.3723 l 80.0309,-29.6372 l 80.0309,-62.1128 l 80.0309,-93.2171 l 80.0309,-186.2532 "/></g><g fill-opacity="0.0" stroke-miterlimit="10.0" stroke-opacity="1.0" stroke-linecap="butt" stroke-linejoin="miter" fill="rgb(0,0,0)" stroke-width="2.0" stroke="rgb(159,238,0)"><path d="M 169.8920,400.0000 l 80.0309,-0.1503 l 80.0309,-0.3154 l 80.0309,-0.6572 l 80.0309,-1.1657 l 80.0309,-2.3878 l 80.0309,-4.7931 l 80.0309,-10.6079 "/></g><g fill-opacity="0.0" stroke-miterlimit="10.0" stroke-opacity="1.0" stroke-linecap="butt" stroke-linejoin="miter" fill="rgb(0,0,0)" stroke-width="2.0" stroke="rgb(255,191,0)"><path d="M 169.8920,399.3209 l 80.0309,-0.7754 l 80.0309,-1.0726 l 80.0309,-2.6206 l 80.0309,-12.4033 l 80.0309,-18.2171 l 80.0309,-23.2036 l 80.0309,-92.4765 "/></g><g fill-opacity="0.0" stroke-miterlimit="10.0" stroke-opacity="1.0" stroke-linecap="butt" stroke-linejoin="miter" fill="rgb(0,0,0)" stroke-width="2.0" stroke="rgb(255,0,0)"><path d="M 169.8920,398.9148 l 80.0309,-1.3505 l 80.0309,-2.6018 l 80.0309,-4.3090 l 80.0309,-8.7137 l 80.0309,-9.1614 l 80.0309,-37.1205 l 80.0309,-64.8837 "/></g></svg>