<?xml version="1.0" encoding="UTF-8"?>
<!DOCTYPE svg PUBLIC "-//W3C//DTD SVG 1.1//EN"
    "http://www.w3.org/Graphics/SVG/1.1/DTD/svg11.dtd"><svg height="400.0000" width="900.0000" xmlns:xlink="http://www.w3.org/1999/xlink" stroke-opacity="1" version="1.1" stroke="rgb(0,0,0)" xmlns="http://www.w3.org/2000/svg" font-size="1" viewBox="0.0 0.0 900.0 400.0"><defs></defs><g fill-opacity="0.0" stroke-miterlimit="10.0" stroke-opacity="1.0" stroke-linecap="butt" stroke-linejoin="miter" fill="rgb(0,0,0)" stroke-width="2.0" stroke="rgb(113,9,170)"><path d="M 169.8931,398.8296 l 80.0305,-1.3958 l 80.0305,-3.6501 l 80.0305,-5.0406 l 80.0305,-12.1512 l 80.0305,-27.2132 l 80.0305,-51.5510 l 80.0305,-108.0340 "/></g><g fill-opacity="0.0" stroke-miterlimit="10.0" stroke-opacity="1.0" stroke-linecap="butt" stroke-linejoin="miter" fill="rgb(0,0,0)" stroke-width="2.0" stroke="rgb(11,97,164)"><path d="M 169.8931,398.6852 l 80.0305,-1.3351 l 80.0305,-3.3243 l 80.0305,-23.5345 l 80.0305,-30.0293 l 80.0305,-63.0311 l 80.0305,-96.8230 l 80.0305,-180.6078 "/></g><g fill-opacity="0.0" stroke-miterlimit="10.0" stroke-opacity="1.0" stroke-linecap="butt" stroke-linejoin="miter" fill="rgb(0,0,0)" stroke-width="2.0" stroke="rgb(159,238,0)"><path d="M 169.8931,400.0000 l 80.0305,-0.1597 l 80.0305,-0.3064 l 80.0305,-0.6216 l 80.0305,-1.2274 l 80.0305,-2.5628 l 80.0305,-5.4271 l 80.0305,-9.6646 "/></g><g fill-opacity="0.0" stroke-miterlimit="10.0" stroke-opacity="1.0" stroke-linecap="butt" stroke-linejoin="miter" fill="rgb(0,0,0)" stroke-width="2.0" stroke="rgb(255,191,0)"><path d="M 169.8931,399.5427 l 80.0305,-0.5949 l 80.0305,-1.2426 l 80.0305,-2.6195 l 80.0305,-12.2612 l 80.0305,-17.6464 l 80.0305,-22.5176 l 80.0305,-87.5855 "/></g><g fill-opacity="0.0" stroke-miterlimit="10.0" stroke-opacity="1.0" stroke-linecap="butt" stroke-linejoin="miter" fill="rgb(0,0,0)" stroke-width="2.0" stroke="rgb(255,0,0)"><path d="M 169.8931,398.9817 l 80.0305,-1.4740 l 80.0305,-2.0493 l 80.0305,-4.4006 l 80.0305,-7.8376 l 80.0305,-9.4969 l 80.0305,-36.5461 l 80.0305,-63.0650 "/></g></svg>