<?xml version="1.0" encoding="UTF-8"?>
<!DOCTYPE svg PUBLIC "-//W3C//DTD SVG 1.1//EN"
    "http://www.w3.org/Graphics/SVG/1.1/DTD/svg11.dtd"><svg height="400.0000" width="900.0000" xmlns:xlink="http://www.w3.org/1999/xlink" stroke-opacity="1" version="1.1" stroke="rgb(0,0,0)" xmlns="http://www.w3.org/2000/svg" font-size="1" viewBox="0.0 0.0 900.0 400.0"><defs></defs><g fill-opacity="1.0" stroke-miterlimit="10.0" stroke-opacity="1.0" stroke-linecap="butt" stroke-linejoin="miter" fill="rgb(30,30,30)" stroke-width="0.0" stroke="rgb(0,0,0)"><path d="M 730.1264,400.0000 l -0.0000,-400.0000 h -560.2528 l -0.0000,400.0000 Z"/></g><g fill-opacity="0.0" stroke-miterlimit="10.0" stroke-opacity="1.0" stroke-linecap="butt" stroke-linejoin="miter" fill="rgb(0,0,0)" stroke-width="2.0" stroke="rgb(113,9,170)"><path d="M 169.8736,398.7758 l 80.0361,-1.4767 l 80.0361,-3.1584 l 80.0361,-6.4843 l 80.0361,-13.2218 l 80.0361,-26.2011 l 80.0361,-55.8047 l 80.0361,-114.2979 "/></g><g fill-opacity="0.0" stroke-miterlimit="10.0" stroke-opacity="1.0" stroke-linecap="butt" stroke-linejoin="miter" fill="rgb(0,0,0)" stroke-width="2.0" stroke="rgb(11,97,164)"><path d="M 169.8736,398.7458 l 80.0361,-1.5408 l 80.0361,-2.9921 l 80.0361,-5.8405 l 80.0361,-27.6341 l 80.0361,-48.1901 l 80.0361,-89.2287 l 80.0361,-223.3194 "/></g><g fill-opacity="0.0" stroke-miterlimit="10.0" stroke-opacity="1.0" stroke-linecap="butt" stroke-linejoin="miter" fill="rgb(0,0,0)" stroke-width="2.0" stroke="rgb(159,238,0)"><path d="M 169.8736,400.0000 l 80.0361,-0.1783 l 80.0361,-0.3739 l 80.0361,-0.6919 l 80.0361,-1.4986 l 80.0361,-3.0467 l 80.0361,-5.6508 l 80.0361,-11.6729 "/></g><g fill-opacity="0.0" stroke-miterlimit="10.0" stroke-opacity="1.0" stroke-linecap="butt" stroke-linejoin="miter" fill="rgb(0,0,0)" stroke-width="2.0" stroke="rgb(255,191,0)"><path d="M 169.8736,399.4790 l 80.0361,-0.7927 l 80.0361,-1.4026 l 80.0361,-3.1872 l 80.0361,-14.2226 l 80.0361,-20.9843 l 80.0361,-45.1251 l 80.0361,-94.4436 "/></g><g fill-opacity="0.0" stroke-miterlimit="10.0" stroke-opacity="1.0" stroke-linecap="butt" stroke-linejoin="miter" fill="rgb(0,0,0)" stroke-width="2.0" stroke="rgb(255,0,0)"><path d="M 169.8736,398.7973 l 80.0361,-1.3459 l 80.0361,-3.1801 l 80.0361,-5.0543 l 80.0361,-8.6757 l 80.0361,-10.3164 l 80.0361,-41.3761 l 80.0361,-73.9493 "/></g></svg>