<?xml version="1.0" encoding="UTF-8"?>
<!DOCTYPE svg PUBLIC "-//W3C//DTD SVG 1.1//EN"
    "http://www.w3.org/Graphics/SVG/1.1/DTD/svg11.dtd"><svg height="400.0000" width="900.0000" xmlns:xlink="http://www.w3.org/1999/xlink" stroke-opacity="1" version="1.1" stroke="rgb(0,0,0)" xmlns="http://www.w3.org/2000/svg" font-size="1" viewBox="0.0 0.0 900.0 400.0"><defs></defs><g fill-opacity="1.0" stroke-miterlimit="10.0" stroke-opacity="1.0" stroke-linecap="butt" stroke-linejoin="miter" fill="rgb(30,30,30)" stroke-width="0.0" stroke="rgb(0,0,0)"><path d="M 730.0329,400.0000 l -0.0000,-400.0000 h -560.0657 l -0.0000,400.0000 Z"/></g><g fill-opacity="0.0" stroke-miterlimit="10.0" stroke-opacity="1.0" stroke-linecap="butt" stroke-linejoin="miter" fill="rgb(0,0,0)" stroke-width="2.0" stroke="rgb(113,9,170)"><path d="M 169.9671,399.3608 l 80.0094,-0.7467 l 80.0094,-1.6933 l 80.0094,-21.9451 l 80.0094,-2.8406 l 80.0094,-0.7767 l 80.0094,-16.6683 l 80.0094,-46.7593 "/></g><g fill-opacity="0.0" stroke-miterlimit="10.0" stroke-opacity="1.0" stroke-linecap="butt" stroke-linejoin="miter" fill="rgb(0,0,0)" stroke-width="2.0" stroke="rgb(11,97,164)"><path d="M 169.9671,399.6469 l 80.0094,-0.4106 l 80.0094,-0.8236 l 80.0094,-8.7501 l 80.0094,-9.3242 l 80.0094,-11.2420 l 80.0094,-185.8875 l 80.0094,-183.2090 "/></g><g fill-opacity="0.0" stroke-miterlimit="10.0" stroke-opacity="1.0" stroke-linecap="butt" stroke-linejoin="miter" fill="rgb(0,0,0)" stroke-width="2.0" stroke="rgb(159,238,0)"><path d="M 169.9671,400.0000 l 80.0094,-0.0466 l 80.0094,-0.0936 l 80.0094,-0.1896 l 80.0094,-0.3765 l 80.0094,-0.7739 l 80.0094,-1.5251 l 80.0094,-3.1791 "/></g><g fill-opacity="0.0" stroke-miterlimit="10.0" stroke-opacity="1.0" stroke-linecap="butt" stroke-linejoin="miter" fill="rgb(0,0,0)" stroke-width="2.0" stroke="rgb(255,191,0)"><path d="M 169.9671,399.5914 l 80.0094,-0.1067 l 80.0094,-0.9710 l 80.0094,-4.0137 l 80.0094,-12.3862 l 80.0094,-8.5506 l 80.0094,-48.3891 l 80.0094,-108.1085 "/></g><g fill-opacity="0.0" stroke-miterlimit="10.0" stroke-opacity="1.0" stroke-linecap="butt" stroke-linejoin="miter" fill="rgb(0,0,0)" stroke-width="2.0" stroke="rgb(255,0,0)"><path d="M 169.9671,398.6506 l 80.0094,-1.3223 l 80.0094,-3.0496 l 80.0094,-5.9977 l 80.0094,-12.2610 l 80.0094,-25.5040 l 80.0094,-51.6151 l 80.0094,-106.7410 "/></g></svg>