<?xml version="1.0" encoding="UTF-8"?>
<!DOCTYPE svg PUBLIC "-//W3C//DTD SVG 1.1//EN"
    "http://www.w3.org/Graphics/SVG/1.1/DTD/svg11.dtd"><svg height="400.0000" width="900.0000" xmlns:xlink="http://www.w3.org/1999/xlink" stroke-opacity="1" version="1.1" stroke="rgb(0,0,0)" xmlns="http://www.w3.org/2000/svg" font-size="1" viewBox="0.0 0.0 900.0 400.0"><defs></defs><g fill-opacity="0.0" stroke-miterlimit="10.0" stroke-opacity="1.0" stroke-linecap="butt" stroke-linejoin="miter" fill="rgb(0,0,0)" stroke-width="2.0" stroke="rgb(113,9,170)"><path d="M 169.8709,398.7353 l 80.0369,-2.6163 l 80.0369,-2.4332 l 80.0369,-6.6823 l 80.0369,-14.4046 l 80.0369,-28.4419 l 80.0369,-58.9338 l 80.0369,-123.3681 "/></g><g fill-opacity="0.0" stroke-miterlimit="10.0" stroke-opacity="1.0" stroke-linecap="butt" stroke-linejoin="miter" fill="rgb(0,0,0)" stroke-width="2.0" stroke="rgb(11,97,164)"><path d="M 169.8709,398.6809 l 80.0369,-1.3926 l 80.0369,-2.7399 l 80.0369,-5.9260 l 80.0369,-27.0349 l 80.0369,-49.3667 l 80.0369,-89.6793 l 80.0369,-222.5415 "/></g><g fill-opacity="0.0" stroke-miterlimit="10.0" stroke-opacity="1.0" stroke-linecap="butt" stroke-linejoin="miter" fill="rgb(0,0,0)" stroke-width="2.0" stroke="rgb(159,238,0)"><path d="M 169.8709,400.0000 l 80.0369,-0.1828 l 80.0369,-0.3647 l 80.0369,-0.6941 l 80.0369,-1.4929 l 80.0369,-2.8645 l 80.0369,-5.9128 l 80.0369,-13.0106 "/></g><g fill-opacity="0.0" stroke-miterlimit="10.0" stroke-opacity="1.0" stroke-linecap="butt" stroke-linejoin="miter" fill="rgb(0,0,0)" stroke-width="2.0" stroke="rgb(255,191,0)"><path d="M 169.8709,399.4599 l 80.0369,-0.7626 l 80.0369,-1.4000 l 80.0369,-5.0986 l 80.0369,-16.6766 l 80.0369,-19.2833 l 80.0369,-41.7204 l 80.0369,-94.4483 "/></g><g fill-opacity="0.0" stroke-miterlimit="10.0" stroke-opacity="1.0" stroke-linecap="butt" stroke-linejoin="miter" fill="rgb(0,0,0)" stroke-width="2.0" stroke="rgb(255,0,0)"><path d="M 169.8709,398.7541 l 80.0369,-1.2882 l 80.0369,-2.4383 l 80.0369,-5.1872 l 80.0369,-8.9055 l 80.0369,-11.1797 l 80.0369,-40.0674 l 80.0369,-71.9086 "/></g></svg>