<?xml version="1.0" encoding="UTF-8"?>
<!DOCTYPE svg PUBLIC "-//W3C//DTD SVG 1.1//EN"
    "http://www.w3.org/Graphics/SVG/1.1/DTD/svg11.dtd"><svg height="400.0000" width="900.0000" xmlns:xlink="http://www.w3.org/1999/xlink" stroke-opacity="1" version="1.1" stroke="rgb(0,0,0)" xmlns="http://www.w3.org/2000/svg" font-size="1" viewBox="0.0 0.0 900.0 400.0"><defs></defs><g fill-opacity="1.0" stroke-miterlimit="10.0" stroke-opacity="1.0" stroke-linecap="butt" stroke-linejoin="miter" fill="rgb(30,30,30)" stroke-width="0.0" stroke="rgb(0,0,0)"><path d="M 730.0621,400.0000 l -0.0000,-400.0000 h -560.1243 l -0.0000,400.0000 Z"/></g><g fill-opacity="0.0" stroke-miterlimit="10.0" stroke-opacity="1.0" stroke-linecap="butt" stroke-linejoin="miter" fill="rgb(0,0,0)" stroke-width="2.0" stroke="rgb(255,73,0)"><path d="M 169.9379,0.0000 h 80.0178 "/></g><g fill-opacity="0.0" stroke-miterlimit="10.0" stroke-opacity="1.0" stroke-linecap="butt" stroke-linejoin="miter" fill="rgb(0,0,0)" stroke-width="2.0" stroke="rgb(113,9,170)"><path d="M 169.9379,398.7869 l 80.0178,-1.3625 l 80.0178,-4.1545 l 80.0178,-27.2462 l 80.0178,-16.5269 l 80.0178,-7.0480 l 80.0178,-26.9393 l 80.0178,-87.4087 "/></g><g fill-opacity="0.0" stroke-miterlimit="10.0" stroke-opacity="1.0" stroke-linecap="butt" stroke-linejoin="miter" fill="rgb(0,0,0)" stroke-width="2.0" stroke="rgb(11,97,164)"><path d="M 169.9379,399.3806 l 80.0178,-0.8183 l 80.0178,-1.5060 l 80.0178,-7.9380 l 80.0178,-25.9920 l 80.0178,-20.3931 l 80.0178,-73.8883 l 80.0178,-130.7654 "/></g><g fill-opacity="0.0" stroke-miterlimit="10.0" stroke-opacity="1.0" stroke-linecap="butt" stroke-linejoin="miter" fill="rgb(0,0,0)" stroke-width="2.0" stroke="rgb(159,238,0)"><path d="M 169.9379,400.0000 l 80.0178,-0.0790 l 80.0178,-0.1823 l 80.0178,-0.3345 l 80.0178,-0.7219 l 80.0178,-1.4672 l 80.0178,-2.9061 l 80.0178,-5.4734 "/></g><g fill-opacity="0.0" stroke-miterlimit="10.0" stroke-opacity="1.0" stroke-linecap="butt" stroke-linejoin="miter" fill="rgb(0,0,0)" stroke-width="2.0" stroke="rgb(255,191,0)"><path d="M 169.9379,399.2477 l 80.0178,-0.2743 l 80.0178,-1.6494 l 80.0178,-4.0044 l 80.0178,-4.4997 l 80.0178,-11.9110 l 80.0178,-26.9430 l 80.0178,-55.7003 "/></g><g fill-opacity="0.0" stroke-miterlimit="10.0" stroke-opacity="1.0" stroke-linecap="butt" stroke-linejoin="miter" fill="rgb(0,0,0)" stroke-width="2.0" stroke="rgb(255,0,0)"><path d="M 169.9379,397.7164 l 80.0178,-2.5781 l 80.0178,-4.9843 l 80.0178,-10.6223 l 80.0178,-21.9380 l 80.0178,-46.2518 l 80.0178,-96.2704 l 80.0178,-215.0715 "/></g></svg>