<?xml version="1.0" encoding="UTF-8"?>
<!DOCTYPE svg PUBLIC "-//W3C//DTD SVG 1.1//EN"
    "http://www.w3.org/Graphics/SVG/1.1/DTD/svg11.dtd"><svg height="400.0000" width="900.0000" xmlns:xlink="http://www.w3.org/1999/xlink" stroke-opacity="1" version="1.1" stroke="rgb(0,0,0)" xmlns="http://www.w3.org/2000/svg" font-size="1" viewBox="0.0 0.0 900.0 400.0"><defs></defs><g fill-opacity="1.0" stroke-miterlimit="10.0" stroke-opacity="1.0" stroke-linecap="butt" stroke-linejoin="miter" fill="rgb(30,30,30)" stroke-width="0.0" stroke="rgb(0,0,0)"><path d="M 730.0543,400.0000 l -0.0000,-400.0000 h -560.1086 l -0.0000,400.0000 Z"/></g><g fill-opacity="0.0" stroke-miterlimit="10.0" stroke-opacity="1.0" stroke-linecap="butt" stroke-linejoin="miter" fill="rgb(0,0,0)" stroke-width="2.0" stroke="rgb(255,73,0)"><path d="M 169.9457,0.0000 h 80.0155 "/></g><g fill-opacity="0.0" stroke-miterlimit="10.0" stroke-opacity="1.0" stroke-linecap="butt" stroke-linejoin="miter" fill="rgb(0,0,0)" stroke-width="2.0" stroke="rgb(113,9,170)"><path d="M 169.9457,399.4054 l 80.0155,-0.7091 l 80.0155,-1.8544 l 80.0155,-2.5608 l 80.0155,-6.1732 l 80.0155,-13.8252 l 80.0155,-26.1895 l 80.0155,-54.8847 "/></g><g fill-opacity="0.0" stroke-miterlimit="10.0" stroke-opacity="1.0" stroke-linecap="butt" stroke-linejoin="miter" fill="rgb(0,0,0)" stroke-width="2.0" stroke="rgb(11,97,164)"><path d="M 169.9457,399.3320 l 80.0155,-0.6783 l 80.0155,-1.6888 l 80.0155,-11.9563 l 80.0155,-15.2559 l 80.0155,-32.0218 l 80.0155,-49.1892 l 80.0155,-91.7546 "/></g><g fill-opacity="0.0" stroke-miterlimit="10.0" stroke-opacity="1.0" stroke-linecap="butt" stroke-linejoin="miter" fill="rgb(0,0,0)" stroke-width="2.0" stroke="rgb(159,238,0)"><path d="M 169.9457,400.0000 l 80.0155,-0.0811 l 80.0155,-0.1557 l 80.0155,-0.3158 l 80.0155,-0.6236 l 80.0155,-1.3020 l 80.0155,-2.7571 l 80.0155,-4.9099 "/></g><g fill-opacity="0.0" stroke-miterlimit="10.0" stroke-opacity="1.0" stroke-linecap="butt" stroke-linejoin="miter" fill="rgb(0,0,0)" stroke-width="2.0" stroke="rgb(255,191,0)"><path d="M 169.9457,399.7677 l 80.0155,-0.3022 l 80.0155,-0.6313 l 80.0155,-1.3308 l 80.0155,-6.2291 l 80.0155,-8.9650 l 80.0155,-11.4397 l 80.0155,-44.4962 "/></g><g fill-opacity="0.0" stroke-miterlimit="10.0" stroke-opacity="1.0" stroke-linecap="butt" stroke-linejoin="miter" fill="rgb(0,0,0)" stroke-width="2.0" stroke="rgb(255,0,0)"><path d="M 169.9457,399.4826 l 80.0155,-0.7488 l 80.0155,-1.0411 l 80.0155,-2.2356 l 80.0155,-3.9817 l 80.0155,-4.8247 l 80.0155,-18.5666 l 80.0155,-32.0390 "/></g></svg>