<?xml version="1.0" encoding="UTF-8"?>
<!DOCTYPE svg PUBLIC "-//W3C//DTD SVG 1.1//EN"
    "http://www.w3.org/Graphics/SVG/1.1/DTD/svg11.dtd"><svg height="400.0000" width="900.0000" xmlns:xlink="http://www.w3.org/1999/xlink" stroke-opacity="1" version="1.1" stroke="rgb(0,0,0)" xmlns="http://www.w3.org/2000/svg" font-size="1" viewBox="0.0 0.0 900.0 400.0"><defs></defs><g fill-opacity="1.0" stroke-miterlimit="10.0" stroke-opacity="1.0" stroke-linecap="butt" stroke-linejoin="miter" fill="rgb(30,30,30)" stroke-width="0.0" stroke="rgb(0,0,0)"><path d="M 730.0578,400.0000 l -0.0000,-400.0000 h -560.1156 l -0.0000,400.0000 Z"/></g><g fill-opacity="0.0" stroke-miterlimit="10.0" stroke-opacity="1.0" stroke-linecap="butt" stroke-linejoin="miter" fill="rgb(0,0,0)" stroke-width="2.0" stroke="rgb(255,73,0)"><path d="M 169.9422,0.0000 h 80.0165 "/></g><g fill-opacity="0.0" stroke-miterlimit="10.0" stroke-opacity="1.0" stroke-linecap="butt" stroke-linejoin="miter" fill="rgb(0,0,0)" stroke-width="2.0" stroke="rgb(113,9,170)"><path d="M 169.9422,399.4338 l 80.0165,-1.1714 l 80.0165,-1.0894 l 80.0165,-2.9919 l 80.0165,-6.4493 l 80.0165,-12.7342 l 80.0165,-26.3862 l 80.0165,-55.2351 "/></g><g fill-opacity="0.0" stroke-miterlimit="10.0" stroke-opacity="1.0" stroke-linecap="butt" stroke-linejoin="miter" fill="rgb(0,0,0)" stroke-width="2.0" stroke="rgb(11,97,164)"><path d="M 169.9422,399.4094 l 80.0165,-0.6235 l 80.0165,-1.2267 l 80.0165,-2.6532 l 80.0165,-12.1042 l 80.0165,-22.1027 l 80.0165,-40.1518 l 80.0165,-99.6377 "/></g><g fill-opacity="0.0" stroke-miterlimit="10.0" stroke-opacity="1.0" stroke-linecap="butt" stroke-linejoin="miter" fill="rgb(0,0,0)" stroke-width="2.0" stroke="rgb(159,238,0)"><path d="M 169.9422,400.0000 l 80.0165,-0.0818 l 80.0165,-0.1633 l 80.0165,-0.3108 l 80.0165,-0.6684 l 80.0165,-1.2825 l 80.0165,-2.6473 l 80.0165,-5.8252 "/></g><g fill-opacity="0.0" stroke-miterlimit="10.0" stroke-opacity="1.0" stroke-linecap="butt" stroke-linejoin="miter" fill="rgb(0,0,0)" stroke-width="2.0" stroke="rgb(255,191,0)"><path d="M 169.9422,399.7582 l 80.0165,-0.3414 l 80.0165,-0.6268 l 80.0165,-2.2828 l 80.0165,-7.4666 l 80.0165,-8.6336 l 80.0165,-18.6793 l 80.0165,-42.2870 "/></g><g fill-opacity="0.0" stroke-miterlimit="10.0" stroke-opacity="1.0" stroke-linecap="butt" stroke-linejoin="miter" fill="rgb(0,0,0)" stroke-width="2.0" stroke="rgb(255,0,0)"><path d="M 169.9422,399.4422 l 80.0165,-0.5768 l 80.0165,-1.0917 l 80.0165,-2.3224 l 80.0165,-3.9872 l 80.0165,-5.0055 l 80.0165,-17.9392 l 80.0165,-32.1953 "/></g></svg>